<svg xmlns="http://www.w3.org/2000/svg" width="16.001" height="16.574" viewBox="0 0 16.001 16.574">
  <defs>
    <rect id="rect-1" width="16.001" height="16.574" x="0" y="0"/>
  </defs>
  <g opacity=".58">
    <path fill="rgb(0,0,0)" fill-rule="evenodd" d="M11.813488 10.99360657l3.94461823 4.1026001c.33371353.34709167.32265854.90046691-.02415085 1.23419189-.16321563.1571045-.37822723.24351501-.60486984.24351501-.23944855 0-.46289444-.09513855-.62902069-.26766967l-3.97458649-4.13372803c-1.12857055.79310608-2.4485817 1.21090698-3.83376693 1.21090698C3.00196075 13.38342285 0 10.38145447 0 6.69171143 0 3.00196075 3.00196075 0 6.69171143 0c3.68975067 0 6.69171142 3.00196075 6.69171142 6.69171143 0 1.57923889-.5557022 3.09622192-1.56993484 4.30189514zm-.17573165-4.30189514c0-2.72731018-2.21873856-4.94605256-4.94604492-4.94605256-2.72731018 0-4.94604874 2.21874238-4.94604874 4.94605256s2.21873856 4.94604492 4.94604874 4.94604492c2.72730636 0 4.94604492-2.21873474 4.94604492-4.94604492z"/>
  </g>
</svg>
